<svg xmlns="http://www.w3.org/2000/svg" viewBox="0 0 64 64" role="img" aria-labelledby="title">
  <title>OpenAI</title>
  <rect width="64" height="64" fill="none"/>
  <g fill="none" stroke="#10A37F" stroke-width="5.2" stroke-linecap="round" stroke-linejoin="round">
    <path d="M32 9.2c6.8 0 12.4 5.5 12.4 12.4v3.9L32 32.6 19.6 25.5v-3.9C19.6 14.7 25.2 9.2 32 9.2Z"/>
    <path d="M51.7 20.6c3.4 5.9 1.4 13.5-4.5 16.9l-3.4 2L31.4 32.3V17.9l3.4-2c5.9-3.4 13.5-1.4 16.9 4.7Z"/>
    <path d="M51.7 43.4c-3.4 5.9-11 8-16.9 4.6l-3.4-2V31.7l12.4-7.2 3.4 2c5.9 3.4 7.9 11 4.5 16.9Z"/>
    <path d="M32 54.8c-6.8 0-12.4-5.5-12.4-12.4v-3.9L32 31.4l12.4 7.1v3.9c0 6.9-5.6 12.4-12.4 12.4Z"/>
    <path d="M12.3 43.4c-3.4-5.9-1.4-13.5 4.5-16.9l3.4-2 12.4 7.2v14.4l-3.4 2c-5.9 3.3-13.5 1.3-16.9-4.7Z"/>
    <path d="M12.3 20.6c3.4-5.9 11-8 16.9-4.6l3.4 2v14.3l-12.4 7.2-3.4-2c-5.9-3.4-7.9-11-4.5-16.9Z"/>
  </g>
</svg>
